<?xml version="1.0" encoding="UTF-8"?>
<!DOCTYPE svg PUBLIC "-//W3C//DTD SVG 1.1//EN" "http://www.w3.org/Graphics/SVG/1.1/DTD/svg11.dtd">
<svg version="1.1" xmlns="http://www.w3.org/2000/svg" xmlns:xlink="http://www.w3.org/1999/xlink" x="0" y="0" width="209" height="209" viewBox="0, 0, 209, 209">
  <g id="Background">
    <path d="M0,-0 L209,-0 L209,209 L0,209 L0,-0 z" fill="#FFFFFF"/>
  </g>
  <g id="Grid">
    <path d="M14.167,0.5 L14.833,209.5" fill-opacity="0" stroke="#B6B6B6" stroke-width="1" stroke-opacity="0.45"/>
    <path d="M26.167,0.5 L26.167,209.5" fill-opacity="0" stroke="#B6B6B6" stroke-width="1" stroke-opacity="0.45"/>
    <path d="M38.5,0.5 L38.5,209.5" fill-opacity="0" stroke="#B6B6B6" stroke-width="1" stroke-opacity="0.45"/>
    <path d="M50.167,0.5 L50.167,209.5" fill-opacity="0" stroke="#B6B6B6" stroke-width="1" stroke-opacity="0.45"/>
    <path d="M62.833,0.5 L62.833,209.5" fill-opacity="0" stroke="#B6B6B6" stroke-width="1" stroke-opacity="0.45"/>
    <path d="M74.833,0.5 L74.833,209.5" fill-opacity="0" stroke="#B6B6B6" stroke-width="1" stroke-opacity="0.45"/>
    <path d="M86.167,0.5 L86.167,209.5" fill-opacity="0" stroke="#B6B6B6" stroke-width="1" stroke-opacity="0.45"/>
    <path d="M98.167,0.5 L98.167,209.5" fill-opacity="0" stroke="#B6B6B6" stroke-width="1" stroke-opacity="0.45"/>
    <path d="M110.833,0.5 L110.833,209.5" fill-opacity="0" stroke="#B6B6B6" stroke-width="1" stroke-opacity="0.45"/>
    <path d="M122.833,0.5 L122.833,209.5" fill-opacity="0" stroke="#B6B6B6" stroke-width="1" stroke-opacity="0.45"/>
    <path d="M134.167,0.5 L134.167,209.5" fill-opacity="0" stroke="#B6B6B6" stroke-width="1" stroke-opacity="0.45"/>
    <path d="M146.833,0.5 L146.833,209.5" fill-opacity="0" stroke="#B6B6B6" stroke-width="1" stroke-opacity="0.45"/>
    <path d="M158.167,0.5 L158.167,209.5" fill-opacity="0" stroke="#B6B6B6" stroke-width="1" stroke-opacity="0.45"/>
    <path d="M170.167,0.5 L170.167,209.5" fill-opacity="0" stroke="#B6B6B6" stroke-width="1" stroke-opacity="0.45"/>
    <path d="M182.833,0.5 L182.833,209.5" fill-opacity="0" stroke="#B6B6B6" stroke-width="1" stroke-opacity="0.45"/>
    <path d="M195.833,0.5 L195.833,209.5" fill-opacity="0" stroke="#B6B6B6" stroke-width="1" stroke-opacity="0.45"/>
    <path d="M206.5,0.5 L206.5,209.5" fill-opacity="0" stroke="#B6B6B6" stroke-width="1" stroke-opacity="0.45"/>
    <path d="M0.5,12.167 L209.5,12.833" fill-opacity="0" stroke="#B6B6B6" stroke-width="1" stroke-opacity="0.45"/>
    <path d="M0.5,23.833 L209.5,24.5" fill-opacity="0" stroke="#B6B6B6" stroke-width="1" stroke-opacity="0.45"/>
    <path d="M0.5,36.833 L209.5,37.5" fill-opacity="0" stroke="#B6B6B6" stroke-width="1" stroke-opacity="0.45"/>
    <path d="M0.5,47.833 L209.5,48.5" fill-opacity="0" stroke="#B6B6B6" stroke-width="1" stroke-opacity="0.45"/>
    <path d="M0.5,60.833 L209.5,61.5" fill-opacity="0" stroke="#B6B6B6" stroke-width="1" stroke-opacity="0.45"/>
    <path d="M0.5,71.833 L209.5,72.5" fill-opacity="0" stroke="#B6B6B6" stroke-width="1" stroke-opacity="0.45"/>
    <path d="M0.5,84.833 L209.5,85.5" fill-opacity="0" stroke="#B6B6B6" stroke-width="1" stroke-opacity="0.45"/>
    <path d="M0.5,96.833 L209.5,97.5" fill-opacity="0" stroke="#B6B6B6" stroke-width="1" stroke-opacity="0.45"/>
    <path d="M0.5,107.833 L209.5,108.5" fill-opacity="0" stroke="#B6B6B6" stroke-width="1" stroke-opacity="0.45"/>
    <path d="M0.5,119.833 L209.5,120.5" fill-opacity="0" stroke="#B6B6B6" stroke-width="1" stroke-opacity="0.45"/>
    <path d="M0.5,131.833 L209.5,132.5" fill-opacity="0" stroke="#B6B6B6" stroke-width="1" stroke-opacity="0.45"/>
    <path d="M0.5,144.833 L209.5,145.5" fill-opacity="0" stroke="#B6B6B6" stroke-width="1" stroke-opacity="0.45"/>
    <path d="M0.5,156.833 L209.5,157.5" fill-opacity="0" stroke="#B6B6B6" stroke-width="1" stroke-opacity="0.45"/>
    <path d="M0.5,168.833 L209.5,169.5" fill-opacity="0" stroke="#B6B6B6" stroke-width="1" stroke-opacity="0.45"/>
    <path d="M0.5,179.833 L209.5,180.5" fill-opacity="0" stroke="#B6B6B6" stroke-width="1" stroke-opacity="0.45"/>
    <path d="M0.5,191.833 L209.5,192.5" fill-opacity="0" stroke="#B6B6B6" stroke-width="1" stroke-opacity="0.45"/>
    <path d="M0.5,203.833 L209.5,204.5" fill-opacity="0" stroke="#B6B6B6" stroke-width="1" stroke-opacity="0.45"/>
    <path d="M2.833,0.5 L3.5,209.5" fill-opacity="0" stroke="#B6B6B6" stroke-width="1" stroke-opacity="0.45"/>
  </g>
  <g id="Hexagon_(no_border)" display="none">
    <path d="M104.333,209 L14,156.928 L14.204,52.428 L104.704,-0 L195,52.072 L195,157 z" fill="#009789"/>
  </g>
  <g id="Hexagon_(border)">
    <g>
      <path d="M104.846,201.5 L21.5,153.414 L21.689,56.914 L105.189,8.5 L188.5,56.586 L188.5,153.481 z" fill="#009789"/>
      <path d="M104.846,201.5 L21.5,153.414 L21.689,56.914 L105.189,8.5 L188.5,56.586 L188.5,153.481 z" fill-opacity="0" stroke="#FFFFFE" stroke-width="14"/>
    </g>
  </g>
  <g id="Diags" display="none">
    <path d="M14.704,52.928 L195.5,157.5" fill-opacity="0" stroke="#B6B6B6" stroke-width="1" stroke-opacity="0.45"/>
    <path d="M14.5,157.428 L195.5,52.928" fill-opacity="0" stroke="#B6B6B6" stroke-width="1" stroke-opacity="0.45"/>
    <path d="M104.833,209.5 L105.204,0.5" fill-opacity="0" stroke="#B6B6B6" stroke-width="1" stroke-opacity="0.45"/>
  </g>
  <g id="Border_Scores">
    <path d="M28.697,149.167 L14.5,157.428" fill-opacity="0" stroke="#B6B6B6" stroke-width="1" stroke-opacity="0.901"/>
    <path d="M14.704,52.928 L28.929,61.158" fill-opacity="0" stroke="#B6B6B6" stroke-width="1" stroke-opacity="0.901"/>
    <path d="M105.204,0.5 L105.204,17" fill-opacity="0" stroke="#B6B6B6" stroke-width="1" stroke-opacity="0.901"/>
    <path d="M181.375,60.938 L195.5,52.928" fill-opacity="0" stroke="#B6B6B6" stroke-width="1" stroke-opacity="0.901"/>
    <path d="M181.214,149.167 L195.5,157.748" fill-opacity="0" stroke="#B6B6B6" stroke-width="1" stroke-opacity="0.901"/>
    <path d="M104.833,193.109 L104.833,209.5" fill-opacity="0" stroke="#B6B6B6" stroke-width="1" stroke-opacity="0.901"/>
  </g>
  <g id="Symbol">
    <g>
      <path d="M71.146,104.5 Q71.146,100.809 73.123,98.919 Q75.101,97.029 78.88,97.029 Q82.527,97.029 84.527,98.963 Q86.526,100.896 86.526,104.5 Q86.526,107.972 84.505,109.971 Q82.483,111.971 78.88,111.971 Q75.188,111.971 73.167,110.015 Q71.146,108.06 71.146,104.5 z" fill="#FFFFFE"/>
      <path d="M96.81,104.5 Q96.81,100.809 98.787,98.919 Q100.765,97.029 104.544,97.029 Q108.191,97.029 110.191,98.963 Q112.19,100.896 112.19,104.5 Q112.19,107.972 110.169,109.971 Q108.147,111.971 104.544,111.971 Q100.853,111.971 98.831,110.015 Q96.81,108.06 96.81,104.5 z" fill="#FFFFFE"/>
      <path d="M122.474,104.5 Q122.474,100.809 124.451,98.919 Q126.429,97.029 130.208,97.029 Q133.855,97.029 135.855,98.963 Q137.854,100.896 137.854,104.5 Q137.854,107.972 135.833,109.971 Q133.812,111.971 130.208,111.971 Q126.517,111.971 124.495,110.015 Q122.474,108.06 122.474,104.5 z" fill="#FFFFFE"/>
      <path d="M71.146,80.5 Q71.146,76.809 73.123,74.919 Q75.101,73.029 78.88,73.029 Q82.527,73.029 84.527,74.963 Q86.526,76.896 86.526,80.5 Q86.526,83.972 84.505,85.971 Q82.483,87.971 78.88,87.971 Q75.188,87.971 73.167,86.015 Q71.146,84.06 71.146,80.5 z" fill="#FFFFFE"/>
      <path d="M97.31,80.5 Q97.31,76.809 99.287,74.919 Q101.265,73.029 105.044,73.029 Q108.691,73.029 110.691,74.963 Q112.69,76.896 112.69,80.5 Q112.69,83.972 110.669,85.971 Q108.647,87.971 105.044,87.971 Q101.353,87.971 99.331,86.015 Q97.31,84.06 97.31,80.5 z" fill="#FFFFFE"/>
      <path d="M122.474,80.5 Q122.474,76.809 124.451,74.919 Q126.429,73.029 130.208,73.029 Q133.855,73.029 135.855,74.963 Q137.854,76.896 137.854,80.5 Q137.854,83.972 135.833,85.971 Q133.812,87.971 130.208,87.971 Q126.517,87.971 124.495,86.015 Q122.474,84.06 122.474,80.5 z" fill="#FFFFFE"/>
      <path d="M71.146,128.5 Q71.146,124.809 73.123,122.919 Q75.101,121.029 78.88,121.029 Q82.527,121.029 84.527,122.963 Q86.526,124.896 86.526,128.5 Q86.526,131.972 84.505,133.971 Q82.483,135.971 78.88,135.971 Q75.188,135.971 73.167,134.015 Q71.146,132.06 71.146,128.5 z" fill="#FFFFFE"/>
      <path d="M96.81,128.5 Q96.81,124.809 98.787,122.919 Q100.765,121.029 104.544,121.029 Q108.191,121.029 110.191,122.963 Q112.19,124.896 112.19,128.5 Q112.19,131.972 110.169,133.971 Q108.147,135.971 104.544,135.971 Q100.853,135.971 98.831,134.015 Q96.81,132.06 96.81,128.5 z" fill="#FFFFFE"/>
      <path d="M122.474,128.5 Q122.474,124.809 124.451,122.919 Q126.429,121.029 130.208,121.029 Q133.855,121.029 135.855,122.963 Q137.854,124.896 137.854,128.5 Q137.854,131.972 135.833,133.971 Q133.812,135.971 130.208,135.971 Q126.517,135.971 124.495,134.015 Q122.474,132.06 122.474,128.5 z" fill="#FFFFFE"/>
    </g>
  </g>
</svg>
