<?xml version="1.0" encoding="UTF-8"?>
<!DOCTYPE svg PUBLIC "-//W3C//DTD SVG 1.1//EN" "http://www.w3.org/Graphics/SVG/1.1/DTD/svg11.dtd">
<svg version="1.1" xmlns="http://www.w3.org/2000/svg" xmlns:xlink="http://www.w3.org/1999/xlink" x="0" y="0" width="209" height="209" viewBox="0, 0, 209, 209">
  <g id="Background" display="none">
    <g>
      <path d="M0.5,0.5 L209.5,0.5 L209.5,209.5 L0.5,209.5 L0.5,0.5 z" fill="#FFFFFF"/>
      <path d="M0.5,0.5 L209.5,0.5 L209.5,209.5 L0.5,209.5 L0.5,0.5 z" fill-opacity="0" stroke="#000000" stroke-width="1"/>
    </g>
  </g>
  <g id="Grid" display="none">
    <path d="M14.167,0.5 L14.833,209.5" fill-opacity="0" stroke="#B6B6B6" stroke-width="1" stroke-opacity="0.45"/>
    <path d="M26.167,0.5 L26.167,209.5" fill-opacity="0" stroke="#B6B6B6" stroke-width="1" stroke-opacity="0.45"/>
    <path d="M38.5,0.5 L38.5,209.5" fill-opacity="0" stroke="#B6B6B6" stroke-width="1" stroke-opacity="0.45"/>
    <path d="M50.167,0.5 L50.167,209.5" fill-opacity="0" stroke="#B6B6B6" stroke-width="1" stroke-opacity="0.45"/>
    <path d="M62.833,0.5 L62.833,209.5" fill-opacity="0" stroke="#B6B6B6" stroke-width="1" stroke-opacity="0.45"/>
    <path d="M74.833,0.5 L74.833,209.5" fill-opacity="0" stroke="#B6B6B6" stroke-width="1" stroke-opacity="0.45"/>
    <path d="M86.167,0.5 L86.167,209.5" fill-opacity="0" stroke="#B6B6B6" stroke-width="1" stroke-opacity="0.45"/>
    <path d="M98.167,0.5 L98.167,209.5" fill-opacity="0" stroke="#B6B6B6" stroke-width="1" stroke-opacity="0.45"/>
    <path d="M110.833,0.5 L110.833,209.5" fill-opacity="0" stroke="#B6B6B6" stroke-width="1" stroke-opacity="0.45"/>
    <path d="M122.833,0.5 L122.833,209.5" fill-opacity="0" stroke="#B6B6B6" stroke-width="1" stroke-opacity="0.45"/>
    <path d="M134.167,0.5 L134.167,209.5" fill-opacity="0" stroke="#B6B6B6" stroke-width="1" stroke-opacity="0.45"/>
    <path d="M146.833,0.5 L146.833,209.5" fill-opacity="0" stroke="#B6B6B6" stroke-width="1" stroke-opacity="0.45"/>
    <path d="M158.167,0.5 L158.167,209.5" fill-opacity="0" stroke="#B6B6B6" stroke-width="1" stroke-opacity="0.45"/>
    <path d="M170.167,0.5 L170.167,209.5" fill-opacity="0" stroke="#B6B6B6" stroke-width="1" stroke-opacity="0.45"/>
    <path d="M182.833,0.5 L182.833,209.5" fill-opacity="0" stroke="#B6B6B6" stroke-width="1" stroke-opacity="0.45"/>
    <path d="M195.833,0.5 L195.833,209.5" fill-opacity="0" stroke="#B6B6B6" stroke-width="1" stroke-opacity="0.45"/>
    <path d="M206.5,0.5 L206.5,209.5" fill-opacity="0" stroke="#B6B6B6" stroke-width="1" stroke-opacity="0.45"/>
    <path d="M0.5,12.167 L209.5,12.833" fill-opacity="0" stroke="#B6B6B6" stroke-width="1" stroke-opacity="0.45"/>
    <path d="M0.5,23.833 L209.5,24.5" fill-opacity="0" stroke="#B6B6B6" stroke-width="1" stroke-opacity="0.45"/>
    <path d="M0.5,36.833 L209.5,37.5" fill-opacity="0" stroke="#B6B6B6" stroke-width="1" stroke-opacity="0.45"/>
    <path d="M0.5,47.833 L209.5,48.5" fill-opacity="0" stroke="#B6B6B6" stroke-width="1" stroke-opacity="0.45"/>
    <path d="M0.5,60.833 L209.5,61.5" fill-opacity="0" stroke="#B6B6B6" stroke-width="1" stroke-opacity="0.45"/>
    <path d="M0.5,71.833 L209.5,72.5" fill-opacity="0" stroke="#B6B6B6" stroke-width="1" stroke-opacity="0.45"/>
    <path d="M0.5,84.833 L209.5,85.5" fill-opacity="0" stroke="#B6B6B6" stroke-width="1" stroke-opacity="0.45"/>
    <path d="M0.5,96.833 L209.5,97.5" fill-opacity="0" stroke="#B6B6B6" stroke-width="1" stroke-opacity="0.45"/>
    <path d="M0.5,107.833 L209.5,108.5" fill-opacity="0" stroke="#B6B6B6" stroke-width="1" stroke-opacity="0.45"/>
    <path d="M0.5,119.833 L209.5,120.5" fill-opacity="0" stroke="#B6B6B6" stroke-width="1" stroke-opacity="0.45"/>
    <path d="M0.5,131.833 L209.5,132.5" fill-opacity="0" stroke="#B6B6B6" stroke-width="1" stroke-opacity="0.45"/>
    <path d="M0.5,144.833 L209.5,145.5" fill-opacity="0" stroke="#B6B6B6" stroke-width="1" stroke-opacity="0.45"/>
    <path d="M0.5,156.833 L209.5,157.5" fill-opacity="0" stroke="#B6B6B6" stroke-width="1" stroke-opacity="0.45"/>
    <path d="M0.5,168.833 L209.5,169.5" fill-opacity="0" stroke="#B6B6B6" stroke-width="1" stroke-opacity="0.45"/>
    <path d="M0.5,179.833 L209.5,180.5" fill-opacity="0" stroke="#B6B6B6" stroke-width="1" stroke-opacity="0.45"/>
    <path d="M0.5,191.833 L209.5,192.5" fill-opacity="0" stroke="#B6B6B6" stroke-width="1" stroke-opacity="0.45"/>
    <path d="M0.5,203.833 L209.5,204.5" fill-opacity="0" stroke="#B6B6B6" stroke-width="1" stroke-opacity="0.45"/>
    <path d="M2.833,0.5 L3.5,209.5" fill-opacity="0" stroke="#B6B6B6" stroke-width="1" stroke-opacity="0.45"/>
  </g>
  <g id="Hexagon">
    <g>
      <path d="M104.333,209 L14,156.928 L14.204,52.428 L104.704,-0 L195,52.072 L195,157 z" fill="#009789"/>
      <path d="M104.704,0 L195,52.072 L195,157 L104.333,209 L14,156.928 L14.204,52.428 L104.704,0 z M104.72,16.17 L28.189,60.506 L28.016,148.848 L104.351,192.85 L181,148.89 L181,60.16 L104.72,16.17 z" fill="#FFFFFE"/>
    </g>
  </g>
  <g id="Diags" display="none">
    <path d="M14.704,52.928 L195.5,157.5" fill-opacity="0" stroke="#B6B6B6" stroke-width="1" stroke-opacity="0.45"/>
    <path d="M14.5,157.428 L195.5,52.928" fill-opacity="0" stroke="#B6B6B6" stroke-width="1" stroke-opacity="0.45"/>
    <path d="M104.833,209.5 L105.204,0.5" fill-opacity="0" stroke="#B6B6B6" stroke-width="1" stroke-opacity="0.45"/>
  </g>
  <g id="Border_Scores">
    <path d="M29.5,149.167 L14.5,157.428" fill-opacity="0" stroke="#B6B6B6" stroke-width="1" stroke-opacity="0.901"/>
    <path d="M14.704,52.928 L29.5,61.5" fill-opacity="0" stroke="#B6B6B6" stroke-width="1" stroke-opacity="0.901"/>
    <path d="M104.833,0.5 L104.833,18.5" fill-opacity="0" stroke="#B6B6B6" stroke-width="1" stroke-opacity="0.901"/>
    <path d="M180.833,60.833 L195.5,52.928" fill-opacity="0" stroke="#B6B6B6" stroke-width="1" stroke-opacity="0.901"/>
    <path d="M180.833,149.167 L195.5,157.5" fill-opacity="0" stroke="#B6B6B6" stroke-width="1" stroke-opacity="0.901"/>
    <path d="M104.833,192.5 L104.833,209.5" fill-opacity="0" stroke="#B6B6B6" stroke-width="1" stroke-opacity="0.901"/>
  </g>
  <g id="Symbol">
    <path d="M70.646,105.716 Q70.646,102.024 72.623,100.135 Q74.601,98.245 78.38,98.245 Q82.027,98.245 84.027,100.179 Q86.026,102.112 86.026,105.716 Q86.026,109.188 84.005,111.187 Q81.983,113.187 78.38,113.187 Q74.688,113.187 72.667,111.231 Q70.646,109.275 70.646,105.716 z" fill="#FFFFFE"/>
    <path d="M96.31,105.716 Q96.31,102.024 98.287,100.135 Q100.265,98.245 104.044,98.245 Q107.691,98.245 109.691,100.179 Q111.69,102.112 111.69,105.716 Q111.69,109.188 109.669,111.187 Q107.647,113.187 104.044,113.187 Q100.353,113.187 98.331,111.231 Q96.31,109.275 96.31,105.716 z" fill="#FFFFFE"/>
    <path d="M121.974,105.716 Q121.974,102.024 123.951,100.135 Q125.929,98.245 129.708,98.245 Q133.355,98.245 135.355,100.179 Q137.355,102.112 137.355,105.716 Q137.355,109.188 135.333,111.187 Q133.312,113.187 129.708,113.187 Q126.017,113.187 123.995,111.231 Q121.974,109.275 121.974,105.716 z" fill="#FFFFFE"/>
    <path d="M70.646,81.716 Q70.646,78.024 72.623,76.135 Q74.601,74.245 78.38,74.245 Q82.027,74.245 84.027,76.179 Q86.026,78.112 86.026,81.716 Q86.026,85.188 84.005,87.187 Q81.983,89.187 78.38,89.187 Q74.688,89.187 72.667,87.231 Q70.646,85.275 70.646,81.716 z" fill="#FFFFFE"/>
    <path d="M96.31,81.716 Q96.31,78.024 98.287,76.135 Q100.265,74.245 104.044,74.245 Q107.691,74.245 109.691,76.179 Q111.69,78.112 111.69,81.716 Q111.69,85.188 109.669,87.187 Q107.647,89.187 104.044,89.187 Q100.353,89.187 98.331,87.231 Q96.31,85.275 96.31,81.716 z" fill="#FFFFFE"/>
    <path d="M121.974,81.716 Q121.974,78.024 123.951,76.135 Q125.929,74.245 129.708,74.245 Q133.355,74.245 135.355,76.179 Q137.355,78.112 137.355,81.716 Q137.355,85.188 135.333,87.187 Q133.312,89.187 129.708,89.187 Q126.017,89.187 123.995,87.231 Q121.974,85.275 121.974,81.716 z" fill="#FFFFFE"/>
    <path d="M70.646,129.716 Q70.646,126.024 72.623,124.135 Q74.601,122.245 78.38,122.245 Q82.027,122.245 84.027,124.179 Q86.026,126.112 86.026,129.716 Q86.026,133.188 84.005,135.187 Q81.983,137.187 78.38,137.187 Q74.688,137.187 72.667,135.231 Q70.646,133.275 70.646,129.716 z" fill="#FFFFFE"/>
    <path d="M96.31,129.716 Q96.31,126.024 98.287,124.135 Q100.265,122.245 104.044,122.245 Q107.691,122.245 109.691,124.179 Q111.69,126.112 111.69,129.716 Q111.69,133.188 109.669,135.187 Q107.647,137.187 104.044,137.187 Q100.353,137.187 98.331,135.231 Q96.31,133.275 96.31,129.716 z" fill="#FFFFFE"/>
    <path d="M121.974,129.716 Q121.974,126.024 123.951,124.135 Q125.929,122.245 129.708,122.245 Q133.355,122.245 135.355,124.179 Q137.355,126.112 137.355,129.716 Q137.355,133.188 135.333,135.187 Q133.312,137.187 129.708,137.187 Q126.017,137.187 123.995,135.231 Q121.974,133.275 121.974,129.716 z" fill="#FFFFFE"/>
  </g>
</svg>
